<svg width="50" height="50" viewBox="0 0 50 50" fill="none" xmlns="http://www.w3.org/2000/svg">
    <rect width="50" height="50" rx="25" fill="#C4C4C4"/>
    <rect width="50" height="50" rx="25" fill="url(#paint0_linear_3495_12761)"/>
    <path d="M28.2878 32.1248C29.9417 31.7498 31.5367 31.0984 33.0058 30.1799C34.1175 29.4821 34.4525 28.0193 33.752 26.9125C33.0519 25.8034 31.5833 25.4695 30.4696 26.1673C27.1415 28.2506 22.8568 28.2501 19.5306 26.1673C18.4169 25.4695 16.9478 25.8034 16.2492 26.9125C15.5487 28.0202 15.8827 29.4821 16.9945 30.1799C18.4636 31.0974 20.0586 31.7498 21.7124 32.1248L17.17 36.6465C16.2415 37.5717 16.2415 39.0719 17.1709 39.9971C17.6362 40.4592 18.2448 40.6906 18.8534 40.6906C19.4631 40.6906 20.0727 40.4592 20.5379 39.9971L24.9996 35.5538L29.4652 39.9971C30.3938 40.9224 31.9003 40.9224 32.8298 39.9971C33.7602 39.0719 33.7602 37.5708 32.8298 36.6465L28.2878 32.1248Z"
          fill="white"/>
    <path d="M33.078 17.4942C33.078 21.9486 29.4295 25.5719 24.9413 25.5719C20.4541 25.5719 16.8047 21.9486 16.8047 17.4942C16.8047 13.0384 20.4541 9.41406 24.9413 9.41406C29.4295 9.41406 33.078 13.0384 33.078 17.4942ZM28.3103 17.4942C28.3103 15.6494 26.7991 14.1493 24.9413 14.1493C23.085 14.1493 21.5724 15.6494 21.5724 17.4942C21.5724 19.3375 23.085 20.8386 24.9413 20.8386C26.7991 20.8386 28.3103 19.3375 28.3103 17.4942Z"
          fill="white"/>
    <defs>
        <linearGradient id="paint0_linear_3495_12761" x1="25" y1="0" x2="25" y2="50" gradientUnits="userSpaceOnUse">
            <stop stop-color="#F98509"/>
            <stop offset="1" stop-color="#F95D00"/>
        </linearGradient>
    </defs>
</svg>
