<svg width="18" height="18" viewBox="0 0 18 18" fill="none" xmlns="http://www.w3.org/2000/svg">
<path d="M3.4 10.8291C1.91891 11.4825 1 12.3929 1 13.4C1 15.3882 4.58172 17 9 17C13.4183 17 17 15.3882 17 13.4C17 12.3929 16.0811 11.4825 14.6 10.8291M13.8 5.8C13.8 9.05097 10.2 10.6 9 13C7.8 10.6 4.2 9.05097 4.2 5.8C4.2 3.14903 6.34903 1 9 1C11.651 1 13.8 3.14903 13.8 5.8ZM9.8 5.8C9.8 6.24183 9.44183 6.6 9 6.6C8.55817 6.6 8.2 6.24183 8.2 5.8C8.2 5.35817 8.55817 5 9 5C9.44183 5 9.8 5.35817 9.8 5.8Z" stroke="#8F8F8F" stroke-linecap="round" stroke-linejoin="round"/>
</svg>
