<svg width="15" height="15" viewBox="0 0 15 15" fill="none" xmlns="http://www.w3.org/2000/svg">
<path d="M12 14.5H14.5V13C14.5 11.6193 13.3807 10.5 12 10.5M8.5 3.49804C8.5 5.15396 7.157 6.49609 5.5 6.49609C3.843 6.49609 2.5 5.15396 2.5 3.49804C2.5 1.84212 3.843 0.5 5.5 0.5C7.157 0.5 8.5 1.84212 8.5 3.49804ZM10.5 14.4909H0.5C0.5 13.7808 0.5 13.1053 0.5 12.4936C0.5 10.8368 1.84315 9.49414 3.5 9.49414H7.5C9.15685 9.49414 10.5 10.8368 10.5 12.4936C10.5 13.1053 10.5 13.7808 10.5 14.4909ZM11.5 8.5C10.3954 8.5 9.5 7.60457 9.5 6.5C9.5 5.39543 10.3954 4.5 11.5 4.5C12.6046 4.5 13.5 5.39543 13.5 6.5C13.5 7.60457 12.6046 8.5 11.5 8.5Z" stroke="#8F8F8F"/>
</svg>
