<svg width="15" height="15" viewBox="0 0 15 15" fill="none" xmlns="http://www.w3.org/2000/svg">
<path d="M3.5 13.5L3.34319 13.0252L3.5612 12.9532L3.7579 13.0716L3.5 13.5ZM1.5 11.5L1.92118 11.2305L2.04999 11.4319L1.9742 11.6585L1.5 11.5ZM0.5 14.4908L0.656809 14.9656C0.477135 15.025 0.279353 14.9778 0.145799 14.8437C0.0122452 14.7097 -0.0341978 14.5118 0.0258036 14.3323L0.5 14.4908ZM3.7579 13.0716C4.71414 13.6474 6.24343 13.9908 7.5 13.9908V14.9908C6.11457 14.9908 4.39386 14.6218 3.2421 13.9284L3.7579 13.0716ZM7.5 13.9908C11.0902 13.9908 14 11.0825 14 7.49548H15C15 11.6354 11.6418 14.9908 7.5 14.9908V13.9908ZM14 7.49548C14 3.90845 11.0902 1 7.5 1V0C11.6418 0 15 3.35556 15 7.49548H14ZM7.5 1C3.90984 1 1 3.90845 1 7.49548H0C0 3.35556 3.35816 0 7.5 0V1ZM1 7.49548C1 8.82628 1.29571 10.2529 1.92118 11.2305L1.07882 11.7695C0.314287 10.5745 0 8.93686 0 7.49548H1ZM3.65681 13.9748L0.656809 14.9656L0.343191 14.0161L3.34319 13.0252L3.65681 13.9748ZM0.0258036 14.3323L1.0258 11.3415L1.9742 11.6585L0.974196 14.6494L0.0258036 14.3323Z" fill="#8F8F8F"/>
</svg>
