<svg width="16" height="15" viewBox="0 0 16 15" fill="none" xmlns="http://www.w3.org/2000/svg">
<path d="M4.84375 7.5L8.84375 7.5M11.3438 4L8.84375 7.49542L11.3438 11M14.8438 2.4987C14.8438 3.60198 13.9477 4.49739 12.8438 4.49739C11.7398 4.49739 10.8438 3.60198 10.8438 2.4987C10.8438 1.39542 11.7398 0.5 12.8438 0.5C13.9477 0.5 14.8438 1.39542 14.8438 2.4987ZM14.8438 12.4922C14.8438 13.5954 13.9477 14.4909 12.8438 14.4909C11.7398 14.4909 10.8438 13.5954 10.8438 12.4922C10.8438 11.3889 11.7398 10.4935 12.8438 10.4935C13.9477 10.4935 14.8438 11.3889 14.8438 12.4922ZM4.84375 7.49543C4.84375 8.59871 3.94775 9.49413 2.84375 9.49413C1.73975 9.49413 0.84375 8.59871 0.84375 7.49543C0.84375 6.39215 1.73975 5.49673 2.84375 5.49673C3.94775 5.49673 4.84375 6.39215 4.84375 7.49543Z" stroke="#8F8F8F" stroke-linecap="square"/>
</svg>
