<svg width="20" height="20" viewBox="0 0 20 20" fill="none" xmlns="http://www.w3.org/2000/svg">
<path d="M4.85714 15.1428H5.85714V14.1428H4.85714V15.1428ZM4.85714 19H3.85714C3.85714 19.3788 4.07115 19.725 4.40993 19.8944C4.74871 20.0638 5.15413 20.0273 5.45714 19.8L4.85714 19ZM10 15.1428V14.1428H9.66667L9.4 14.3428L10 15.1428ZM6.14286 5.14285H5.14286V7.14285H6.14286V5.14285ZM13.8571 7.14285H14.8571V5.14285H13.8571V7.14285ZM6.14286 9H5.14286V11H6.14286V9ZM11.2857 11H12.2857V9H11.2857V11ZM3.85714 15.1428V19H5.85714V15.1428H3.85714ZM5.45714 19.8L10.6 15.9428L9.4 14.3428L4.25714 18.2L5.45714 19.8ZM10 16.1428H17.7143V14.1428H10V16.1428ZM17.7143 16.1428C18.9775 16.1428 20 15.1205 20 13.8572H18C18 14.0158 17.873 14.1428 17.7143 14.1428V16.1428ZM20 13.8572V2.28569H18V13.8572H20ZM20 2.28569C20 1.02238 18.9775 0 17.7143 0V2C17.873 2 18 2.127 18 2.28569H20ZM17.7143 0H2.28571V2H17.7143V0ZM2.28571 0C1.02245 0 0 1.02238 0 2.28569H2C2 2.127 2.12698 2 2.28571 2V0ZM0 2.28569V13.8572H2V2.28569H0ZM0 13.8572C0 15.1205 1.02245 16.1428 2.28571 16.1428V14.1428C2.12698 14.1428 2 14.0158 2 13.8572H0ZM2.28571 16.1428H4.85714V14.1428H2.28571V16.1428ZM6.14286 7.14285H13.8571V5.14285H6.14286V7.14285ZM6.14286 11H11.2857V9H6.14286V11Z" fill="#353535"/>
</svg>
